<svg width="28" height="28" viewBox="0 0 28 28" fill="none" xmlns="http://www.w3.org/2000/svg">
<rect width="28" height="28" rx="2" fill="white" fill-opacity="0.7"/>
<rect x="0.5" y="0.5" width="27" height="27" rx="1.5" stroke="#CBCBCB"/>
<path d="M24.625 7.85742C24.625 8.07617 24.5612 8.28581 24.4336 8.48633C22.3646 11.8314 20.7513 14.2786 19.5938 15.8281C17.6706 18.3984 15.4329 20.8503 12.8809 23.1836C12.3796 23.6484 11.8008 23.8809 11.1445 23.8809C10.2331 23.8809 9.59505 23.5482 9.23047 22.8828C8.75651 22.026 8.00456 20.3216 6.97461 17.7695C5.87174 15.0169 5.32031 13.3626 5.32031 12.8066C5.32031 12.3509 5.58919 11.9453 6.12695 11.5898C6.61914 11.2526 7.13411 11.084 7.67188 11.084C8.20964 11.084 8.52865 11.2572 8.62891 11.6035C9.11198 13.3079 10.0462 15.8965 11.4316 19.3691C11.5228 19.6061 11.6641 19.7246 11.8555 19.7246C11.9284 19.7246 11.9967 19.6927 12.0605 19.6289C13.6465 18.1068 15.5514 15.9056 17.7754 13.0254C19.7715 10.4551 21.2344 8.39518 22.1641 6.8457C22.3372 6.56315 22.6289 6.42188 23.0391 6.42188C23.431 6.42188 23.791 6.56771 24.1191 6.85938C24.4564 7.14193 24.625 7.47461 24.625 7.85742Z" fill="#0D1532"/>
</svg>
