<svg width="23" height="23" viewBox="0 0 23 23" fill="none" xmlns="http://www.w3.org/2000/svg">
<g clip-path="url(#clip0_89_7306)">
<g opacity="0.35">
<path d="M22.2502 18.6502L10.4668 6.88569C11.061 5.0435 10.6496 2.95508 9.20525 1.51416C7.82488 0.146197 5.8686 -0.291551 4.08601 0.182676L7.41351 3.50226C7.76089 3.84881 7.76089 4.42336 7.41351 4.76991L4.7899 7.38728C4.44253 7.73383 3.86661 7.73383 3.51924 7.38728L0.182591 4.07681C-0.292767 5.85516 0.146025 7.80678 1.52639 9.18387C2.95246 10.6065 4.99102 11.0261 6.82846 10.4789L18.6393 22.2616C19.6357 23.2556 21.2537 23.2556 22.2593 22.2616C23.2557 21.2675 23.2557 19.6533 22.2593 18.6502H22.2502Z" fill="white"/>
<path d="M21.4459 0.638672L22.7166 1.90632L21.4459 3.52963L21.0163 4.35041L19.6176 4.96143L14.7818 9.78578L13.5203 8.64581L18.4292 3.63907L19.0052 2.38966L21.4459 0.638672Z" fill="white"/>
<path d="M10.2842 15.358C10.2842 15.358 10.2842 15.3762 10.2659 15.3762L4.56158 21.0669C4.36961 21.2585 4.06794 21.2585 3.87597 21.0669C3.684 20.8754 3.684 20.5745 3.87597 20.383L9.58027 14.6922C9.58027 14.6922 9.59855 14.6922 9.59855 14.674L8.62041 13.6982L2.95268 19.3524C2.76071 19.5439 2.45904 19.5439 2.26707 19.3524C2.0751 19.1609 2.0751 18.86 2.26707 18.6684L7.9348 13.0142L7.00236 12.084L0.941553 18.1304C0.0456867 19.0241 0.0456867 20.465 0.941553 21.3588L1.91055 22.3255C2.80642 23.2192 4.25077 23.2192 5.14664 22.3255L11.2075 16.2791L10.275 15.3489L10.2842 15.358Z" fill="white"/>
</g>
</g>
<defs>
<clipPath id="clip0_89_7306">
<rect width="23" height="23" fill="white"/>
</clipPath>
</defs>
</svg>
