<svg width="41" height="41" viewBox="0 0 41 41" fill="none" xmlns="http://www.w3.org/2000/svg">
<g clip-path="url(#clip0_404_12005)">
<g opacity="0.5">
<path d="M24.8627 30.5707H13.0042C12.794 30.5707 12.6152 30.4025 12.6152 30.1817V9.84991C12.6152 9.63966 12.7834 9.46094 13.0042 9.46094H29.0468C29.257 9.46094 29.4357 9.62914 29.4357 9.84991V25.7768C29.4357 25.9871 29.2675 26.1658 29.0468 26.1658H25.2622V30.1922C25.2622 30.4025 25.094 30.5812 24.8732 30.5812L24.8627 30.5707ZM13.3827 29.7927H24.4737V25.7663C24.4737 25.5561 24.6419 25.3773 24.8627 25.3773H28.6473V10.2389H13.3932V29.8032L13.3827 29.7927Z" fill="white"/>
<path d="M26.0819 14.5377H16.1263C15.916 14.5377 15.7373 14.3695 15.7373 14.1487C15.7373 13.928 15.9055 13.7598 16.1263 13.7598H26.0714C26.2817 13.7598 26.4604 13.928 26.4604 14.1487C26.4604 14.3695 26.2922 14.5377 26.0714 14.5377H26.0819Z" fill="white"/>
<path d="M26.0819 18.2291H16.1263C15.916 18.2291 15.7373 18.0609 15.7373 17.8401C15.7373 17.6194 15.9055 17.4512 16.1263 17.4512H26.0714C26.2817 17.4512 26.4604 17.6194 26.4604 17.8401C26.4604 18.0609 26.2922 18.2291 26.0714 18.2291H26.0819Z" fill="white"/>
<path d="M26.0819 21.4147H16.1263C15.916 21.4147 15.7373 21.2465 15.7373 21.0257C15.7373 20.8049 15.9055 20.6367 16.1263 20.6367H26.0714C26.2817 20.6367 26.4604 20.8049 26.4604 21.0257C26.4604 21.2465 26.2922 21.4147 26.0714 21.4147H26.0819Z" fill="white"/>
<path d="M21.5929 24.5885H16.1263C15.916 24.5885 15.7373 24.4203 15.7373 24.1995C15.7373 23.9788 15.9055 23.8105 16.1263 23.8105H21.5929C21.8032 23.8105 21.9819 23.9788 21.9819 24.1995C21.9819 24.4203 21.8137 24.5885 21.5929 24.5885Z" fill="white"/>
<path d="M28.7643 25.5091L24.5869 29.9219L25.1519 30.4567L29.3292 26.0439L28.7643 25.5091Z" fill="white"/>
</g>
</g>
<defs>
<clipPath id="clip0_404_12005">
<rect width="16.81" height="21.1097" fill="white" transform="translate(12.6152 9.46094)"/>
</clipPath>
</defs>
</svg>
