<svg width="12" height="13" viewBox="0 0 12 13" fill="none" xmlns="http://www.w3.org/2000/svg">
<g clip-path="url(#clip0_284_2227)">
<path opacity="0.5" d="M3.84997 10.7197C3.69997 10.7197 3.57997 10.6097 3.56997 10.4597L3.21997 4.15972C3.21997 4.00972 3.32997 3.87972 3.47997 3.86972C3.62997 3.85972 3.75997 3.97972 3.76997 4.12972L4.11997 10.4297C4.11997 10.5797 4.00997 10.7097 3.85997 10.7197C3.85997 10.7197 3.84997 10.7197 3.83997 10.7197H3.84997Z" fill="white"/>
<path opacity="0.5" d="M5.87009 10.8601C5.72009 10.8601 5.59009 10.7401 5.59009 10.5801V4.15012C5.59009 4.00012 5.71009 3.87012 5.87009 3.87012C6.03009 3.87012 6.15009 3.99012 6.15009 4.15012V10.5801C6.15009 10.7301 6.03009 10.8601 5.87009 10.8601Z" fill="white"/>
<path opacity="0.5" d="M7.85994 10.8605C7.85994 10.8605 7.85994 10.8605 7.84994 10.8605C7.69994 10.8605 7.57994 10.7205 7.58994 10.5705L7.90994 4.14047C7.90994 3.99047 8.04994 3.87047 8.19994 3.88047C8.34994 3.88047 8.46994 4.02047 8.45994 4.17047L8.13994 10.6005C8.13994 10.7505 8.00994 10.8605 7.85994 10.8605Z" fill="white"/>
<path opacity="0.5" d="M11.46 1.82H8.44C8.44 1.82 8.44 1.81 8.44 1.8L7.96 0.2C7.92 0.08 7.82 0 7.69 0H4.14C4.02 0 3.92 0.07 3.88 0.18L3.3 1.81H0.28C0.13 1.81 0 1.93 0 2.09C0 2.25 0.12 2.37 0.28 2.37H1.01L1.82 12.71C1.83 12.85 1.95 12.97 2.1 12.97H9.55C9.69 12.97 9.81 12.86 9.83 12.72L10.83 2.37H11.48C11.63 2.37 11.76 2.25 11.76 2.09C11.76 1.93 11.64 1.81 11.48 1.81L11.46 1.82ZM4.34 0.55H7.49L7.87 1.81H3.9L4.35 0.55H4.34ZM9.29 12.41H2.35L1.56 2.37H10.26L9.29 12.41Z" fill="white"/>
</g>
<defs>
<clipPath id="clip0_284_2227">
<rect width="11.74" height="12.97" fill="white"/>
</clipPath>
</defs>
</svg>
