<svg width="23" height="31" viewBox="0 0 23 31" fill="none" xmlns="http://www.w3.org/2000/svg">
<g clip-path="url(#clip0_19_637)">
<path d="M12.66 13.1998C12.43 13.1998 11.71 13.1998 9.72999 11.1098C9.32999 10.6898 9.10999 10.1398 9.10999 9.54977V7.00977H16.54L16.24 10.1298C16.18 10.7298 15.89 11.2798 15.43 11.6598C13.56 13.1998 12.89 13.1998 12.67 13.1998H12.66ZM10.1 7.99977V9.54977C10.1 9.87977 10.22 10.1898 10.45 10.4298C11.79 11.8398 12.48 12.2098 12.67 12.2098C12.92 12.2098 13.62 11.8698 14.8 10.8898C15.06 10.6698 15.22 10.3698 15.26 10.0298L15.46 7.99977H10.11H10.1Z" fill="white"/>
<path d="M12.34 5.89957C12.07 5.89957 11.84 5.67957 11.84 5.39957V2.68957C11.84 2.55957 11.89 2.42957 11.99 2.33957L14.23 0.13957C14.42 -0.0504297 14.74 -0.0504297 14.93 0.13957C15.12 0.32957 15.12 0.64957 14.93 0.83957L12.84 2.89957V5.39957C12.84 5.66957 12.62 5.89957 12.34 5.89957Z" fill="white"/>
<path d="M9.38 7.11968C9.11 7.11968 8.88 6.89968 8.88 6.61968V5.01968C8.88 4.07968 9.45 3.46968 10 2.87968C10.08 2.78968 10.16 2.69968 10.24 2.60968C10.9 1.86968 12.78 1.38968 13.15 1.29968C13.42 1.23968 13.68 1.39968 13.75 1.66968C13.81 1.93968 13.65 2.19968 13.38 2.26968C12.59 2.45968 11.32 2.89968 10.98 3.26968C10.89 3.35968 10.81 3.45968 10.72 3.54968C10.19 4.11968 9.87 4.48968 9.87 5.01968V6.61968C9.87 6.88968 9.65 7.11968 9.37 7.11968H9.38Z" fill="white"/>
<path d="M12.0299 7.98985C10.1899 7.98985 7.63993 7.12985 7.52993 7.08985C7.26993 6.99985 7.12993 6.71985 7.21993 6.45985C7.30993 6.19985 7.58993 6.05985 7.84993 6.14985C7.87993 6.14985 10.4899 7.02985 12.1499 6.98985C13.5599 6.94985 16.5499 6.40985 17.6099 6.20985C17.5099 4.79985 15.8499 3.06985 15.1699 2.47985C14.9599 2.29985 14.9399 1.98985 15.1199 1.77985C15.2999 1.56985 15.6099 1.54985 15.8199 1.72985C15.9499 1.83985 18.8999 4.39985 18.5899 6.68985C18.5599 6.89985 18.3999 7.06985 18.1899 7.10985C18.0199 7.13985 13.9699 7.93985 12.1699 7.98985C12.1199 7.98985 12.0699 7.98985 12.0299 7.98985Z" fill="white"/>
<path d="M4.41996 17.6695C4.41996 17.6695 4.33996 17.6695 4.29996 17.6495C4.03996 17.5795 3.87996 17.3095 3.93996 17.0495C3.95996 16.9795 4.36996 15.4395 5.65996 14.5995C6.84996 13.8295 10.07 12.8195 10.21 12.7695C10.47 12.6895 10.75 12.8295 10.83 13.0995C10.91 13.3595 10.77 13.6395 10.5 13.7195C10.47 13.7295 7.26996 14.7295 6.19996 15.4295C5.23996 16.0495 4.90996 17.2895 4.89996 17.2995C4.83996 17.5195 4.63996 17.6695 4.41996 17.6695Z" fill="white"/>
<path d="M19.9499 29.5797C19.9499 29.5797 19.9199 29.5797 19.8999 29.5797C19.1199 29.5297 12.9199 28.7397 12.6499 28.7097C12.3799 28.6797 12.1899 28.4297 12.2199 28.1597C12.2499 27.8897 12.4999 27.6997 12.7799 27.7297C14.9999 28.0097 19.3599 28.5597 19.9599 28.5897C20.4499 28.5397 21.9199 26.6797 21.9999 26.1397C22.1099 25.2197 21.3699 16.6597 20.9299 15.8797C20.6299 15.4497 17.8399 14.4197 15.4199 13.7197C15.1599 13.6397 14.9999 13.3697 15.0799 13.1097C15.1599 12.8497 15.4299 12.6897 15.6899 12.7697C17.3199 13.2397 21.1799 14.4297 21.7699 15.3597C22.4499 16.4397 23.0499 25.7697 22.9799 26.2797C22.8799 27.0697 21.1099 29.5897 19.9499 29.5897V29.5797Z" fill="white"/>
<path d="M11.3099 29.4396H4.63992V28.4496H11.3099C11.3099 28.4496 11.3599 28.4296 11.3799 28.4196C11.3899 28.4096 11.4099 28.3796 11.3999 28.3496L9.72992 18.8796C9.72992 18.8796 9.68992 18.8096 9.63992 18.8096H1.92992C1.92992 18.8096 1.86992 18.8296 1.85992 18.8396C1.84992 18.8496 1.82992 18.8796 1.83992 18.9096L3.07992 25.9696L2.09992 26.1396L0.859922 19.0796C0.799922 18.7696 0.889922 18.4396 1.09992 18.1996C1.30992 17.9496 1.60992 17.8096 1.92992 17.8096H9.64992C10.1799 17.8096 10.6199 18.1896 10.7099 18.6996L12.3799 28.1696C12.4399 28.4796 12.3499 28.8096 12.1399 29.0496C11.9299 29.2896 11.6299 29.4396 11.3099 29.4396Z" fill="white"/>
<path d="M2.91995 30.9997C2.71995 30.9997 2.51995 30.9697 2.32995 30.9197C1.73995 30.7597 1.24995 30.3897 0.949946 29.8597L0.309946 28.7497C0.00994563 28.2197 -0.0700544 27.6097 0.0799456 27.0197C0.239946 26.4297 0.609946 25.9397 1.13995 25.6397C1.66995 25.3397 2.27995 25.2597 2.86995 25.4097C3.45995 25.5697 3.94995 25.9397 4.24995 26.4697L4.88995 27.5797C5.51995 28.6697 5.13995 30.0597 4.05995 30.6897C3.70995 30.8897 3.31995 30.9997 2.92995 30.9997H2.91995ZM2.27995 26.3297C2.05995 26.3297 1.83995 26.3897 1.63995 26.4997C1.33995 26.6697 1.12995 26.9497 1.03995 27.2797C0.949946 27.6097 0.999946 27.9597 1.16995 28.2497L1.80995 29.3597C1.97995 29.6597 2.25995 29.8697 2.58995 29.9597C2.91995 30.0497 3.26995 29.9997 3.55995 29.8297C4.16995 29.4797 4.37995 28.6897 4.02995 28.0797L3.38995 26.9697C3.21995 26.6697 2.93995 26.4597 2.60995 26.3697C2.49995 26.3397 2.38995 26.3297 2.27995 26.3297Z" fill="white"/>
<path d="M17.6099 24.65C17.6099 24.65 17.5799 24.65 17.5599 24.65L11.1199 24.01C10.9699 23.99 10.8299 23.91 10.7499 23.78C10.6699 23.65 10.6499 23.49 10.7099 23.34L12.2199 19.38C12.3199 19.12 12.5999 19 12.8599 19.09C13.1199 19.19 13.2399 19.47 13.1499 19.73L11.8699 23.08L17.0599 23.6L16.7099 19.6C16.6899 19.33 16.8899 19.09 17.1599 19.06C17.4299 19.04 17.6699 19.24 17.6999 19.51L18.1099 24.11C18.1199 24.26 18.0699 24.4 17.9599 24.51C17.8699 24.6 17.7399 24.65 17.6099 24.65Z" fill="white"/>
</g>
<defs>
<clipPath id="clip0_19_637">
<rect width="22.99" height="31" fill="white"/>
</clipPath>
</defs>
</svg>
