<svg width="13" height="13" viewBox="0 0 13 13" fill="none" xmlns="http://www.w3.org/2000/svg">
<g clip-path="url(#clip0_284_2222)">
<g opacity="0.5">
<g filter="url(#filter0_d_284_2222)">
<path d="M4.3999 9.38973V12.3097H11.8999V1.46973H6.4799" stroke="white" stroke-width="0.75" stroke-miterlimit="10"/>
</g>
<path d="M2.52 1.06L9 7.54L8.93 9.07L7.55 9L1.06 2.51L2.51 1.06M2.51 0L1.98 0.53L0.53 1.98L0 2.51L0.53 3.04L7.01 9.52L7.21 9.72L7.5 9.74L8.88 9.81L9.63 9.85L9.67 9.1L9.74 7.57L9.76 7.24L9.53 7.01L3.05 0.53L2.52 0L2.51 0Z" fill="white"/>
</g>
</g>
<defs>
<filter id="filter0_d_284_2222" x="0.0249023" y="-2.90527" width="16.25" height="19.5898" filterUnits="userSpaceOnUse" color-interpolation-filters="sRGB">
<feFlood flood-opacity="0" result="BackgroundImageFix"/>
<feColorMatrix in="SourceAlpha" type="matrix" values="0 0 0 0 0 0 0 0 0 0 0 0 0 0 0 0 0 0 127 0" result="hardAlpha"/>
<feOffset/>
<feGaussianBlur stdDeviation="2"/>
<feColorMatrix type="matrix" values="0 0 0 0 0.0235294 0 0 0 0 0 0 0 0 0 0.00392157 0 0 0 0.75 0"/>
<feBlend mode="normal" in2="BackgroundImageFix" result="effect1_dropShadow_284_2222"/>
<feBlend mode="normal" in="SourceGraphic" in2="effect1_dropShadow_284_2222" result="shape"/>
</filter>
<clipPath id="clip0_284_2222">
<rect width="12.28" height="12.69" fill="white"/>
</clipPath>
</defs>
</svg>
