<svg width="19" height="23" viewBox="0 0 19 23" fill="none" xmlns="http://www.w3.org/2000/svg">
<g opacity="0.5">
<path fill-rule="evenodd" clip-rule="evenodd" d="M9.16344 8.06688C10.8533 8.06688 12.2231 6.69701 12.2231 5.00719C12.2231 3.31736 10.8533 1.94749 9.16344 1.94749C7.47361 1.94749 6.10374 3.31736 6.10374 5.00719C6.10374 6.69701 7.47361 8.06688 9.16344 8.06688ZM9.16344 9.70187C11.7562 9.70187 13.8581 7.59999 13.8581 5.00719C13.8581 2.41438 11.7562 0.3125 9.16344 0.3125C6.57063 0.3125 4.46875 2.41438 4.46875 5.00719C4.46875 7.59999 6.57063 9.70187 9.16344 9.70187Z" fill="white"/>
<path d="M8.49316 9.03125H9.8345V21.774H8.49316V9.03125Z" fill="white"/>
<path d="M5.14062 12.3828H13.1887V13.7242H5.14062V12.3828Z" fill="white"/>
<path fill-rule="evenodd" clip-rule="evenodd" d="M1.45204 15.7383L2.90408 17.7503H2.34149C3.56213 19.2156 5.89351 21.0617 9.04894 21.0617C11.0146 21.0617 12.8681 20.3256 14.3492 19.3963C15.2083 18.8573 15.9177 18.2689 16.4348 17.7503H16.0959L17.548 15.7383L19 17.7503H18.0606C17.4705 18.5457 16.3815 19.5688 15.0009 20.435C13.3923 21.4444 11.3139 22.2879 9.04894 22.2879C4.83329 22.2879 1.95246 19.4632 0.812202 17.7503H0L1.45204 15.7383Z" fill="white"/>
</g>
</svg>
