<svg width="19" height="27" viewBox="0 0 19 27" fill="none" xmlns="http://www.w3.org/2000/svg">
<g clip-path="url(#clip0_49_5646)">
<path d="M16.05 26.8496H2.17C0.97 26.8496 0 25.8796 0 24.6796V5.51961C0 4.31961 0.97 3.34961 2.17 3.34961H16.05C17.25 3.34961 18.22 4.31961 18.22 5.51961V24.6796C18.22 25.8796 17.25 26.8496 16.05 26.8496ZM2.17 4.54961C1.64 4.54961 1.2 4.97961 1.2 5.51961V24.6796C1.2 25.2096 1.63 25.6496 2.17 25.6496H16.05C16.58 25.6496 17.02 25.2196 17.02 24.6796V5.51961C17.02 4.98961 16.59 4.54961 16.05 4.54961H2.17Z" fill="white"/>
<path d="M13.91 9.17969H4.26005C4.006 9.17969 3.80005 9.38564 3.80005 9.63969V9.64969C3.80005 9.90374 4.006 10.1097 4.26005 10.1097H13.91C14.1641 10.1097 14.37 9.90374 14.37 9.64969V9.63969C14.37 9.38564 14.1641 9.17969 13.91 9.17969Z" fill="white"/>
<path d="M13.91 13.1797H4.26005C4.006 13.1797 3.80005 13.3856 3.80005 13.6397V13.6497C3.80005 13.9037 4.006 14.1097 4.26005 14.1097H13.91C14.1641 14.1097 14.37 13.9037 14.37 13.6497V13.6397C14.37 13.3856 14.1641 13.1797 13.91 13.1797Z" fill="white"/>
<path d="M13.91 17.1895H4.26005C4.006 17.1895 3.80005 17.3954 3.80005 17.6495V17.6595C3.80005 17.9135 4.006 18.1195 4.26005 18.1195H13.91C14.1641 18.1195 14.37 17.9135 14.37 17.6595V17.6495C14.37 17.3954 14.1641 17.1895 13.91 17.1895Z" fill="white"/>
<path d="M13.91 21.3105H4.26005C4.006 21.3105 3.80005 21.5165 3.80005 21.7705V21.7805C3.80005 22.0346 4.006 22.2405 4.26005 22.2405H13.91C14.1641 22.2405 14.37 22.0346 14.37 21.7805V21.7705C14.37 21.5165 14.1641 21.3105 13.91 21.3105Z" fill="white"/>
<path d="M13.16 2.41H11.59C11.59 1.08 10.51 0 9.17997 0H9.02997C7.69997 0 6.61997 1.08 6.61997 2.41H5.04997C4.58997 2.41 4.21997 2.78 4.21997 3.24V4.58C4.21997 5.04 4.58997 5.41 5.04997 5.41H13.15C13.61 5.41 13.98 5.04 13.98 4.58V3.24C13.98 2.78 13.61 2.41 13.15 2.41H13.16Z" fill="white"/>
<path d="M9.11002 2.95906C9.50215 2.95906 9.82002 2.64118 9.82002 2.24906C9.82002 1.85694 9.50215 1.53906 9.11002 1.53906C8.7179 1.53906 8.40002 1.85694 8.40002 2.24906C8.40002 2.64118 8.7179 2.95906 9.11002 2.95906Z" fill="#221714"/>
</g>
<defs>
<clipPath id="clip0_49_5646">
<rect width="18.22" height="26.85" fill="white"/>
</clipPath>
</defs>
</svg>
