<svg width="33" height="31" viewBox="0 0 33 31" fill="none" xmlns="http://www.w3.org/2000/svg">
<g opacity="0.5" clip-path="url(#clip0_2062_4195)">
<path d="M32.5679 0H25.3978C25.3978 0 24.9658 0.169863 24.9658 0.424658V9.4274C24.9658 9.4274 25.1386 9.85205 25.3978 9.85205H26.1752C26.1752 9.85205 26.6072 9.68219 26.6072 9.4274V5.94521H32.5679C32.5679 5.94521 32.9999 5.77534 32.9999 5.52055V0.424658C32.9999 0.424658 32.8271 0 32.5679 0Z" fill="white"/>
<path d="M18.4004 29.7258C15.1177 29.7258 10.5392 29.7258 4.7512 29.5559C4.40565 29.5559 4.14648 29.2162 4.14648 28.8765C4.14648 28.5367 4.40565 28.2819 4.83758 28.2819C11.835 28.4518 23.4109 28.5367 24.3611 28.2819C24.7931 28.0271 26.0889 27.3477 26.0025 24.9696C26.0025 23.0162 23.9292 22.3367 23.4973 22.1669C22.7198 22.1669 17.6229 22.4217 15.8952 22.1669C13.7355 21.8271 12.6125 18.5997 12.6125 17.3258C12.6125 15.5422 14.7721 13.334 16.4135 13.334H24.6203C24.6203 13.334 25.3114 13.5888 25.3114 14.0134C25.3114 14.4381 25.0522 14.6929 24.6203 14.6929H16.4135C15.5496 14.6929 13.9083 16.3066 13.9083 17.4107C13.9083 18.4299 14.8585 20.808 16.1543 21.0628C17.9685 21.3175 23.5837 21.0628 23.5837 21.0628H23.7564C24.9659 21.3175 27.2119 22.5915 27.2983 25.0545C27.2983 27.1778 26.6072 28.6217 24.8795 29.5559C24.5339 29.7258 22.3742 29.8107 18.4004 29.8107V29.7258Z" fill="white"/>
<path d="M4.66517 31.0007C5.7148 31.0007 6.5657 30.1641 6.5657 29.1322C6.5657 28.1002 5.7148 27.2637 4.66517 27.2637C3.61554 27.2637 2.76465 28.1002 2.76465 29.1322C2.76465 30.1641 3.61554 31.0007 4.66517 31.0007Z" fill="white"/>
<path d="M25.8302 15.7975C26.8798 15.7975 27.7307 14.961 27.7307 13.929C27.7307 12.8971 26.8798 12.0605 25.8302 12.0605C24.7806 12.0605 23.9297 12.8971 23.9297 13.929C23.9297 14.961 24.7806 15.7975 25.8302 15.7975Z" fill="white"/>
<path d="M4.40621 13.9291C6.30673 13.9291 7.51616 15.3729 7.51616 16.7318C7.51616 17.8359 6.04757 20.0442 4.92453 21.1483C4.92453 21.1483 4.75176 21.3181 4.57898 21.5729L4.23343 21.1483C3.19679 19.8743 1.64181 17.9209 1.64181 16.8168C1.64181 15.7976 2.59207 13.9291 4.31982 13.9291M4.31982 12.2305C1.46904 12.2305 -0.0859375 15.0332 -0.0859375 16.8168C-0.0859375 18.6003 1.81459 20.8086 3.19679 22.5921C4.57898 24.3757 4.57898 25.9044 4.57898 25.9044C4.57898 24.1209 6.22035 22.3373 6.22035 22.3373C6.22035 22.3373 9.24391 19.1099 9.24391 16.7318C9.24391 14.4387 7.257 12.2305 4.40621 12.2305H4.31982Z" fill="white"/>
<path d="M4.66533 16.3063C4.66533 16.3063 5.35642 16.5611 5.35642 16.9858C5.35642 17.4105 5.09726 17.6652 4.66533 17.6652C4.23339 17.6652 3.97423 17.4105 3.97423 16.9858C3.97423 16.5611 4.23339 16.3063 4.66533 16.3063ZM4.66533 15.457C3.80145 15.457 3.11035 16.1365 3.11035 16.9858C3.11035 17.8351 3.80145 18.5146 4.66533 18.5146C5.5292 18.5146 6.2203 17.8351 6.2203 16.9858C6.2203 16.1365 5.5292 15.457 4.66533 15.457Z" fill="white"/>
</g>
<defs>
<clipPath id="clip0_2062_4195">
<rect width="33" height="31" fill="white"/>
</clipPath>
</defs>
</svg>
