<svg width="15" height="26" viewBox="0 0 15 26" fill="none" xmlns="http://www.w3.org/2000/svg">
<g opacity="0.5" clip-path="url(#clip0_2062_4146)">
<path d="M7.5286 26.0001C3.50973 26.0001 0.453125 24.4858 0.453125 22.5143C0.453125 20.9715 2.23614 19.7143 5.09463 19.2286C5.46256 19.1715 5.85878 19.4286 5.91539 19.8286C5.97199 20.2286 5.71728 20.6001 5.32105 20.6572C3.0852 21.0286 1.86822 21.9143 1.86822 22.5429C1.86822 23.3715 4.07577 24.6001 7.5286 24.6001C10.9814 24.6001 13.1607 23.3715 13.1607 22.5429C13.1607 21.9143 11.9437 21.0286 9.67954 20.6572C9.28331 20.6001 9.0286 20.2286 9.0852 19.8286C9.1418 19.4286 9.53803 19.1715 9.90595 19.2286C12.7927 19.7143 14.5758 20.9715 14.5758 22.5143C14.5758 24.5143 11.5475 26.0001 7.5286 26.0001Z" fill="white"/>
<path d="M7.13208 1.42785C11.066 1.42785 13.5283 4.59927 13.5566 7.51356C13.5566 10.2278 10.3302 14.4278 9.08491 15.8278C9.0283 15.885 8.26415 16.7707 7.5 18.085C7.18868 17.5421 6.82076 16.9421 6.36792 16.3707L5.85849 15.685C3.87736 13.1136 1.41509 9.91356 1.41509 7.65642C1.41509 5.39927 3.36792 1.42785 7.13208 1.42785ZM7.13208 -0.000725448C2.54717 -0.000725448 0 4.68499 0 7.65642C0 10.6278 3.0283 14.3136 5.26415 17.2278C7.5 20.1707 7.5 22.6564 7.5 22.6564C7.58491 19.6564 10.1321 16.7421 10.1321 16.7421C10.1321 16.7421 15 11.3421 14.9717 7.48499C14.9434 3.62785 11.717 -0.0292969 7.13208 -0.0292969V-0.000725448Z" fill="white"/>
<path d="M7.50033 6.79967C8.09467 6.79967 8.5758 7.28538 8.5758 7.88538C8.5758 8.48538 8.09467 8.97109 7.50033 8.97109C6.90599 8.97109 6.42486 8.48538 6.42486 7.88538C6.42486 7.28538 6.90599 6.79967 7.50033 6.79967ZM7.50033 5.37109C6.11354 5.37109 5.00977 6.48538 5.00977 7.88538C5.00977 9.28538 6.11354 10.3997 7.50033 10.3997C8.88712 10.3997 9.9909 9.28538 9.9909 7.88538C9.9909 6.48538 8.88712 5.37109 7.50033 5.37109Z" fill="white"/>
</g>
<defs>
<clipPath id="clip0_2062_4146">
<rect width="15" height="26" fill="white"/>
</clipPath>
</defs>
</svg>
