<svg width="39" height="39" viewBox="0 0 39 39" fill="none" xmlns="http://www.w3.org/2000/svg">
<circle cx="19.5" cy="19.5" r="19.5" fill="#D9D9D9" fill-opacity="0.25"/>
<g clip-path="url(#clip0_555_13722)">
<g opacity="0.7">
<path d="M23.65 29.08H12.37C12.17 29.08 12 28.92 12 28.71V9.37C12 9.17 12.16 9 12.37 9H27.63C27.83 9 28 9.16 28 9.37V24.52C28 24.72 27.84 24.89 27.63 24.89H24.03V28.72C24.03 28.92 23.87 29.09 23.66 29.09L23.65 29.08ZM12.73 28.34H23.28V24.51C23.28 24.31 23.44 24.14 23.65 24.14H27.25V9.74H12.74V28.35L12.73 28.34Z" fill="white"/>
<path d="M24.8097 13.8298H15.3397C15.1397 13.8298 14.9697 13.6698 14.9697 13.4598C14.9697 13.2498 15.1297 13.0898 15.3397 13.0898H24.7997C24.9997 13.0898 25.1697 13.2498 25.1697 13.4598C25.1697 13.6698 25.0097 13.8298 24.7997 13.8298H24.8097Z" fill="white"/>
<path d="M24.8097 17.3396H15.3397C15.1397 17.3396 14.9697 17.1796 14.9697 16.9696C14.9697 16.7596 15.1297 16.5996 15.3397 16.5996H24.7997C24.9997 16.5996 25.1697 16.7596 25.1697 16.9696C25.1697 17.1796 25.0097 17.3396 24.7997 17.3396H24.8097Z" fill="white"/>
<path d="M24.8097 20.3699H15.3397C15.1397 20.3699 14.9697 20.2099 14.9697 19.9999C14.9697 19.7899 15.1297 19.6299 15.3397 19.6299H24.7997C24.9997 19.6299 25.1697 19.7899 25.1697 19.9999C25.1697 20.2099 25.0097 20.3699 24.7997 20.3699H24.8097Z" fill="white"/>
<path d="M20.5397 23.3904H15.3397C15.1397 23.3904 14.9697 23.2304 14.9697 23.0204C14.9697 22.8104 15.1297 22.6504 15.3397 22.6504H20.5397C20.7397 22.6504 20.9097 22.8104 20.9097 23.0204C20.9097 23.2304 20.7497 23.3904 20.5397 23.3904Z" fill="white"/>
<path d="M27.3613 24.2644L23.3877 28.4619L23.9251 28.9706L27.8987 24.7731L27.3613 24.2644Z" fill="white"/>
</g>
</g>
<defs>
<clipPath id="clip0_555_13722">
<rect width="15.99" height="20.08" fill="white" transform="translate(12 9)"/>
</clipPath>
</defs>
</svg>
