<svg width="3" height="15" viewBox="0 0 3 15" fill="none" xmlns="http://www.w3.org/2000/svg">
<g clip-path="url(#clip0_89_6191)">
<path opacity="0.5" d="M1.49712 3.24729C2.32396 3.24729 2.99424 2.52036 2.99424 1.62365C2.99424 0.726931 2.32396 0 1.49712 0C0.670284 0 0 0.726931 0 1.62365C0 2.52036 0.670284 3.24729 1.49712 3.24729Z" fill="white"/>
<path opacity="0.5" d="M1.49712 9.12327C2.32396 9.12327 2.99424 8.39634 2.99424 7.49962C2.99424 6.60291 2.32396 5.87598 1.49712 5.87598C0.670284 5.87598 0 6.60291 0 7.49962C0 8.39634 0.670284 9.12327 1.49712 9.12327Z" fill="white"/>
<path opacity="0.5" d="M1.49712 14.9934C2.32396 14.9934 2.99424 14.2665 2.99424 13.3697C2.99424 12.473 2.32396 11.7461 1.49712 11.7461C0.670284 11.7461 0 12.473 0 13.3697C0 14.2665 0.670284 14.9934 1.49712 14.9934Z" fill="white"/>
</g>
<defs>
<clipPath id="clip0_89_6191">
<rect width="3" height="15" fill="white"/>
</clipPath>
</defs>
</svg>
