<svg width="39" height="39" viewBox="0 0 39 39" fill="none" xmlns="http://www.w3.org/2000/svg">
<circle cx="19.5" cy="19.5" r="19.5" fill="#CCC53E" fill-opacity="0.35"/>
<g clip-path="url(#clip0_558_15037)">
<g opacity="0.7">
<path d="M23.65 29.08H12.37C12.17 29.08 12 28.92 12 28.71V9.37C12 9.17 12.16 9 12.37 9H27.63C27.83 9 28 9.16 28 9.37V24.52C28 24.72 27.84 24.89 27.63 24.89H24.03V28.72C24.03 28.92 23.87 29.09 23.66 29.09L23.65 29.08ZM12.73 28.34H23.28V24.51C23.28 24.31 23.44 24.14 23.65 24.14H27.25V9.74H12.74V28.35L12.73 28.34Z" fill="white"/>
<path d="M24.81 13.8298H15.34C15.14 13.8298 14.97 13.6698 14.97 13.4598C14.97 13.2498 15.13 13.0898 15.34 13.0898H24.8C25 13.0898 25.17 13.2498 25.17 13.4598C25.17 13.6698 25.01 13.8298 24.8 13.8298H24.81Z" fill="white"/>
<path d="M24.81 17.3396H15.34C15.14 17.3396 14.97 17.1796 14.97 16.9696C14.97 16.7596 15.13 16.5996 15.34 16.5996H24.8C25 16.5996 25.17 16.7596 25.17 16.9696C25.17 17.1796 25.01 17.3396 24.8 17.3396H24.81Z" fill="white"/>
<path d="M24.81 20.3699H15.34C15.14 20.3699 14.97 20.2099 14.97 19.9999C14.97 19.7899 15.13 19.6299 15.34 19.6299H24.8C25 19.6299 25.17 19.7899 25.17 19.9999C25.17 20.2099 25.01 20.3699 24.8 20.3699H24.81Z" fill="white"/>
<path d="M20.54 23.3904H15.34C15.14 23.3904 14.97 23.2304 14.97 23.0204C14.97 22.8104 15.13 22.6504 15.34 22.6504H20.54C20.74 22.6504 20.91 22.8104 20.91 23.0204C20.91 23.2304 20.75 23.3904 20.54 23.3904Z" fill="white"/>
<path d="M27.361 24.2644L23.3875 28.4619L23.9248 28.9706L27.8984 24.7731L27.361 24.2644Z" fill="white"/>
</g>
</g>
<defs>
<clipPath id="clip0_558_15037">
<rect width="15.99" height="20.08" fill="white" transform="translate(12 9)"/>
</clipPath>
</defs>
</svg>
