<svg width="188" height="25" viewBox="0 0 188 25" fill="none" xmlns="http://www.w3.org/2000/svg">
<g filter="url(#filter0_d_217_2961)">
<mask id="path-1-outside-1_217_2961" maskUnits="userSpaceOnUse" x="4" y="0" width="180" height="17" fill="black">
<rect fill="white" x="4" width="180" height="17"/>
<path d="M17.2241 7.81152C16.1938 9.45215 14.6802 10.9146 12.6831 12.1987C10.6909 13.478 8.51318 14.3911 6.1499 14.938L5 14.0664V2.48682H7.25586V12.4478C8.67676 11.9985 10.1416 11.2856 11.6504 10.3091C13.1592 9.32764 14.4409 8.10449 15.4956 6.63965L17.2241 7.81152Z"/>
<path d="M26.4893 14.9673H24.2847V6.28076H18.7256V4.44971H24.2847V2.03271H26.4893V4.44971H31.9971V6.28076H26.4893V14.9673ZM32.854 13.1362L31.0669 14.2935C30.1978 13.3901 29.4434 12.2744 28.8037 10.9463C28.1689 9.61328 27.7588 8.41699 27.5732 7.35742L29.6606 7.05713C29.8315 7.81885 30.1953 8.76123 30.752 9.88428C31.3086 11.0024 32.0093 12.0864 32.854 13.1362ZM23.4058 7.34277C22.7612 10.2432 21.5259 12.5381 19.6997 14.2275L18.0005 13.0776C19.0649 11.9448 19.834 10.8242 20.3076 9.71582C20.7812 8.60742 21.0718 7.74805 21.1792 7.1377L23.4058 7.34277ZM32.0996 2.56738C32.0996 3.02148 31.9434 3.39746 31.6309 3.69531C31.3184 3.98828 30.9253 4.13477 30.4517 4.13477C29.978 4.13477 29.585 3.98828 29.2725 3.69531C28.96 3.39746 28.8037 3.02148 28.8037 2.56738C28.8037 2.11328 28.96 1.73975 29.2725 1.44678C29.585 1.14893 29.978 1 30.4517 1C30.9253 1 31.3184 1.14893 31.6309 1.44678C31.9434 1.73975 32.0996 2.11328 32.0996 2.56738ZM31.3818 2.56738C31.3818 2.30859 31.2915 2.08887 31.1108 1.9082C30.9351 1.72754 30.7153 1.63721 30.4517 1.63721C30.188 1.63721 29.9658 1.72754 29.7852 1.9082C29.6094 2.08887 29.5215 2.30859 29.5215 2.56738C29.5215 2.82617 29.6094 3.0459 29.7852 3.22656C29.9658 3.40723 30.188 3.49756 30.4517 3.49756C30.7153 3.49756 30.9351 3.40723 31.1108 3.22656C31.2915 3.0459 31.3818 2.82617 31.3818 2.56738Z"/>
<path d="M47.1729 9.60596H33.7183V7.65771H47.1729V9.60596Z"/>
<path d="M62.1655 9.38623L60.7812 11.1221C58.7012 9.71094 56.5454 8.62207 54.314 7.85547V14.9966H52.0068V1.78369H54.3359V5.69482C56.8066 6.49072 59.4165 7.72119 62.1655 9.38623Z"/>
<path d="M67.4097 15.0405H65.6445V9.21045C64.707 9.29834 63.9819 9.35205 63.4692 9.37158L63.2861 7.92871C63.6035 7.92871 63.9844 7.92139 64.4287 7.90674C64.7656 7.4624 65.061 7.06445 65.3149 6.71289C64.5923 5.86816 63.9209 5.12842 63.3008 4.49365L64.3262 3.41699L64.5532 3.64404C65.061 2.86768 65.459 2.1377 65.7471 1.4541L67.2925 2.05469C66.7896 2.99219 66.2134 3.8833 65.564 4.72803L66.1938 5.43115C66.853 4.43994 67.3193 3.63916 67.5928 3.02881L69.1382 3.73193C68.4351 4.94775 67.4854 6.31006 66.2891 7.81885C66.8262 7.78467 67.3071 7.75049 67.7319 7.71631C67.5659 7.18408 67.4438 6.83984 67.3657 6.68359L68.7061 6.29541C68.9453 6.95459 69.2383 7.88477 69.585 9.08594L68.208 9.44482C68.1982 9.34229 68.1592 9.16895 68.0908 8.9248C67.9053 8.9541 67.6782 8.98584 67.4097 9.02002V15.0405ZM75.2759 7.94336C73.9722 8.10938 72.0752 8.28516 69.585 8.4707L69.2993 6.8667C69.5874 6.86182 69.9414 6.84961 70.3613 6.83008C70.6396 6.25391 70.9155 5.60693 71.189 4.88916H69.4385V3.3584H72.2876V1.68848H74.1479V3.3584H77.2388V4.88916H73.1372C72.8979 5.43604 72.6025 6.04639 72.251 6.72021C73.1152 6.66162 73.8672 6.60303 74.5068 6.54443C74.3262 6.23682 74.1211 5.91455 73.8916 5.57764L73.9502 5.45312L75.4517 4.93311C76.2378 6.0415 76.9385 7.19629 77.5537 8.39746L75.7959 9.04199C75.6445 8.68555 75.4712 8.31934 75.2759 7.94336ZM77.6123 13.29C77.6123 13.6123 77.5537 13.8833 77.4365 14.103C77.3193 14.3228 77.146 14.4888 76.9165 14.6011C76.6919 14.7134 76.4795 14.7769 76.2793 14.7915C76.0791 14.8062 75.7935 14.8135 75.4224 14.8135C74.895 14.8135 74.5312 14.7915 74.3311 14.7476C74.1357 14.7085 73.9575 14.6353 73.7964 14.5278C73.6401 14.4204 73.5181 14.269 73.4302 14.0737C73.3472 13.8784 73.3057 13.6416 73.3057 13.3633V8.51465H75.1367V12.8945C75.1367 13.0654 75.2075 13.1509 75.3491 13.1509H75.7227C75.8105 13.1509 75.8789 13.1289 75.9277 13.085C75.9814 13.041 76.0107 12.9775 76.0156 12.8945C76.0254 12.8115 76.0376 12.5771 76.0522 12.1914C76.0718 11.8057 76.0815 11.437 76.0815 11.0854L77.6123 11.2905V13.29ZM72.5732 9.88428C72.5732 11.0366 72.3242 12.0425 71.8262 12.9019C71.3281 13.7612 70.5908 14.4399 69.6143 14.938L68.6548 13.6343C69.4556 13.1411 70 12.5649 70.2881 11.9058C70.5811 11.2417 70.7275 10.541 70.7275 9.80371V8.59521H72.5732V9.88428ZM69.5264 12.6455L68.1201 12.9092C67.8809 11.4736 67.7344 10.4604 67.6807 9.86963L69.0503 9.65723L69.5264 12.6455ZM65.3882 9.85498C65.2075 11.6812 64.917 13.1143 64.5166 14.1543L63.2275 13.8394C63.6328 12.2524 63.8574 10.8926 63.9014 9.75977L65.3882 9.85498Z"/>
<path d="M89.3311 7.66504H81.5308V6.80078C80.5591 7.42578 79.6582 7.90674 78.8281 8.24365L77.9272 6.70557C79.0112 6.271 80.1392 5.60693 81.311 4.71338C82.4829 3.81982 83.4546 2.8335 84.2261 1.75439H86.416C86.8799 2.43311 87.6807 3.20703 88.8184 4.07617C89.9561 4.94531 91.3062 5.70459 92.8687 6.354L91.7993 8.17041C91.0474 7.86768 90.2246 7.43555 89.3311 6.87402V7.66504ZM82.6953 5.99512H88.0493C86.8921 5.13574 85.9888 4.28613 85.3394 3.44629C84.6655 4.34473 83.7842 5.19434 82.6953 5.99512ZM88.8623 14.1543H81.8604V14.8501H79.7583V8.80029H90.9497V14.8135H88.8623V14.1543ZM81.8604 12.5356H88.8623V10.4189H81.8604V12.5356Z"/>
<path d="M97.2046 1.91553C97.1069 2.13525 96.9897 2.35498 96.853 2.57471H100.112V3.80518H98.4058L98.9111 4.63281L97.1753 4.9624L96.5601 3.80518H95.9375C95.5322 4.27881 95.0635 4.71826 94.5312 5.12354L93.1104 4.37646C93.9893 3.62939 94.7095 2.72363 95.271 1.65918L97.2046 1.91553ZM103.745 1.95947L103.423 2.57471H107.4V3.80518H105.364L105.906 4.55957L104.089 4.85986L103.423 3.80518H102.551C102.209 4.20068 101.902 4.51074 101.628 4.73535L101.343 4.61084V5.2627H107.195V7.87012H105.452V6.44922H95.3882V7.1377H105.063V10.2139H97.2046V11.0488H106.235V14.9233H104.25V14.5205H97.2192V14.9233H95.1611V7.96533H93.645V5.2627H99.3506V4.42041H100.889L100.112 4.09082C100.771 3.36816 101.172 2.9043 101.313 2.69922C101.455 2.49414 101.65 2.15234 101.899 1.67383L103.745 1.95947ZM103.159 9.14453V8.18506H97.2339V9.14453H103.159ZM104.25 13.3193V12.1914H97.2339V13.3193H104.25Z"/>
<path d="M113.135 11.5176C112.036 11.9521 110.496 12.4111 108.513 12.8945L108.096 11.2319L109.89 10.8071V7.75293H108.484V6.23682H109.89V3.87842H108.484V2.36963H113.149V3.87842H111.809V6.23682H113.025V7.75293H111.809V10.2798C112.39 10.104 112.861 9.94531 113.223 9.80371L113.296 10.4702H116.628V9.41553H113.479V1.95947H121.799V9.41553H118.679V10.4702H121.982V12.0449H118.679V13.1509H122.451V14.7695H112.651V13.1509H116.628V12.0449H113.135V11.5176ZM118.679 4.94775H119.822V3.51953H118.679V4.94775ZM115.442 4.94775H116.628V3.51953H115.442V4.94775ZM116.628 6.33936H115.442V7.84082H116.628V6.33936ZM119.822 6.33936H118.679V7.84082H119.822V6.33936Z"/>
<path d="M132.332 4.2373L131.299 6.06836C130.767 5.8291 130.217 5.59229 129.651 5.35791C129.084 5.12354 128.623 4.9502 128.267 4.83789L125.19 3.84912L126.047 2.15723C127.605 2.50391 129.7 3.19727 132.332 4.2373ZM130.911 7.82617L129.915 9.67188C128.831 9.19824 127.937 8.8418 127.234 8.60254C126.536 8.36328 125.371 8.01416 123.74 7.55518L124.575 5.82666C125.596 6.03662 126.523 6.27588 127.358 6.54443C128.198 6.80811 129.382 7.23535 130.911 7.82617ZM137.466 7.25488C136.226 9.56445 134.568 11.332 132.493 12.5576C130.422 13.7832 127.935 14.5303 125.029 14.7988L124.546 12.8359C127.046 12.5771 129.194 11.9692 130.991 11.0122C132.793 10.0552 134.341 8.49268 135.635 6.32471L137.466 7.25488Z"/>
<path d="M152.598 13.4219L150.95 14.9966C150.085 14.0542 148.416 12.5186 145.94 10.3896C143.772 12.4844 141.487 14.0347 139.084 15.0405L138.015 13.312C139.88 12.5161 141.697 11.3394 143.464 9.78174C145.237 8.22412 146.545 6.51514 147.39 4.65479L139.971 4.64746V2.72852H149.595L150.195 3.30713C149.844 4.55225 149.443 5.57275 148.994 6.36865C148.55 7.15967 147.986 7.97998 147.302 8.82959C149.412 10.5435 151.177 12.0742 152.598 13.4219Z"/>
<path d="M166.338 4.63281H154.458V2.75781H166.338V4.63281ZM167.239 8.44141H161.885V8.66846C161.885 10.3823 161.338 11.7788 160.244 12.8579C159.155 13.937 157.622 14.6597 155.645 15.0259L154.985 13.2095C156.479 12.897 157.627 12.3623 158.428 11.6055C159.233 10.8438 159.636 9.89893 159.636 8.771V8.44141H153.572V6.55176H167.239V8.44141Z"/>
<path d="M179.792 13.7441C177.2 14.1152 173.516 14.4424 168.74 14.7256L168.411 12.6821C168.87 12.6821 169.426 12.6699 170.081 12.6455C170.671 11.376 171.326 9.74756 172.043 7.76025C172.766 5.77295 173.379 3.91992 173.882 2.20117L176.13 2.56006C175.085 6.08057 173.848 9.40332 172.417 12.5283C175.273 12.3525 177.417 12.1646 178.848 11.9644C178.589 11.481 177.688 10.0503 176.145 7.67236L177.961 6.74219C178.762 7.72852 179.597 8.94678 180.466 10.397C181.335 11.8423 182.051 13.1558 182.612 14.3374L180.408 15.0991C180.203 14.6157 179.998 14.1641 179.792 13.7441Z"/>
</mask>
<path d="M17.2241 7.81152C16.1938 9.45215 14.6802 10.9146 12.6831 12.1987C10.6909 13.478 8.51318 14.3911 6.1499 14.938L5 14.0664V2.48682H7.25586V12.4478C8.67676 11.9985 10.1416 11.2856 11.6504 10.3091C13.1592 9.32764 14.4409 8.10449 15.4956 6.63965L17.2241 7.81152Z" fill="white"/>
<path d="M26.4893 14.9673H24.2847V6.28076H18.7256V4.44971H24.2847V2.03271H26.4893V4.44971H31.9971V6.28076H26.4893V14.9673ZM32.854 13.1362L31.0669 14.2935C30.1978 13.3901 29.4434 12.2744 28.8037 10.9463C28.1689 9.61328 27.7588 8.41699 27.5732 7.35742L29.6606 7.05713C29.8315 7.81885 30.1953 8.76123 30.752 9.88428C31.3086 11.0024 32.0093 12.0864 32.854 13.1362ZM23.4058 7.34277C22.7612 10.2432 21.5259 12.5381 19.6997 14.2275L18.0005 13.0776C19.0649 11.9448 19.834 10.8242 20.3076 9.71582C20.7812 8.60742 21.0718 7.74805 21.1792 7.1377L23.4058 7.34277ZM32.0996 2.56738C32.0996 3.02148 31.9434 3.39746 31.6309 3.69531C31.3184 3.98828 30.9253 4.13477 30.4517 4.13477C29.978 4.13477 29.585 3.98828 29.2725 3.69531C28.96 3.39746 28.8037 3.02148 28.8037 2.56738C28.8037 2.11328 28.96 1.73975 29.2725 1.44678C29.585 1.14893 29.978 1 30.4517 1C30.9253 1 31.3184 1.14893 31.6309 1.44678C31.9434 1.73975 32.0996 2.11328 32.0996 2.56738ZM31.3818 2.56738C31.3818 2.30859 31.2915 2.08887 31.1108 1.9082C30.9351 1.72754 30.7153 1.63721 30.4517 1.63721C30.188 1.63721 29.9658 1.72754 29.7852 1.9082C29.6094 2.08887 29.5215 2.30859 29.5215 2.56738C29.5215 2.82617 29.6094 3.0459 29.7852 3.22656C29.9658 3.40723 30.188 3.49756 30.4517 3.49756C30.7153 3.49756 30.9351 3.40723 31.1108 3.22656C31.2915 3.0459 31.3818 2.82617 31.3818 2.56738Z" fill="white"/>
<path d="M47.1729 9.60596H33.7183V7.65771H47.1729V9.60596Z" fill="white"/>
<path d="M62.1655 9.38623L60.7812 11.1221C58.7012 9.71094 56.5454 8.62207 54.314 7.85547V14.9966H52.0068V1.78369H54.3359V5.69482C56.8066 6.49072 59.4165 7.72119 62.1655 9.38623Z" fill="white"/>
<path d="M67.4097 15.0405H65.6445V9.21045C64.707 9.29834 63.9819 9.35205 63.4692 9.37158L63.2861 7.92871C63.6035 7.92871 63.9844 7.92139 64.4287 7.90674C64.7656 7.4624 65.061 7.06445 65.3149 6.71289C64.5923 5.86816 63.9209 5.12842 63.3008 4.49365L64.3262 3.41699L64.5532 3.64404C65.061 2.86768 65.459 2.1377 65.7471 1.4541L67.2925 2.05469C66.7896 2.99219 66.2134 3.8833 65.564 4.72803L66.1938 5.43115C66.853 4.43994 67.3193 3.63916 67.5928 3.02881L69.1382 3.73193C68.4351 4.94775 67.4854 6.31006 66.2891 7.81885C66.8262 7.78467 67.3071 7.75049 67.7319 7.71631C67.5659 7.18408 67.4438 6.83984 67.3657 6.68359L68.7061 6.29541C68.9453 6.95459 69.2383 7.88477 69.585 9.08594L68.208 9.44482C68.1982 9.34229 68.1592 9.16895 68.0908 8.9248C67.9053 8.9541 67.6782 8.98584 67.4097 9.02002V15.0405ZM75.2759 7.94336C73.9722 8.10938 72.0752 8.28516 69.585 8.4707L69.2993 6.8667C69.5874 6.86182 69.9414 6.84961 70.3613 6.83008C70.6396 6.25391 70.9155 5.60693 71.189 4.88916H69.4385V3.3584H72.2876V1.68848H74.1479V3.3584H77.2388V4.88916H73.1372C72.8979 5.43604 72.6025 6.04639 72.251 6.72021C73.1152 6.66162 73.8672 6.60303 74.5068 6.54443C74.3262 6.23682 74.1211 5.91455 73.8916 5.57764L73.9502 5.45312L75.4517 4.93311C76.2378 6.0415 76.9385 7.19629 77.5537 8.39746L75.7959 9.04199C75.6445 8.68555 75.4712 8.31934 75.2759 7.94336ZM77.6123 13.29C77.6123 13.6123 77.5537 13.8833 77.4365 14.103C77.3193 14.3228 77.146 14.4888 76.9165 14.6011C76.6919 14.7134 76.4795 14.7769 76.2793 14.7915C76.0791 14.8062 75.7935 14.8135 75.4224 14.8135C74.895 14.8135 74.5312 14.7915 74.3311 14.7476C74.1357 14.7085 73.9575 14.6353 73.7964 14.5278C73.6401 14.4204 73.5181 14.269 73.4302 14.0737C73.3472 13.8784 73.3057 13.6416 73.3057 13.3633V8.51465H75.1367V12.8945C75.1367 13.0654 75.2075 13.1509 75.3491 13.1509H75.7227C75.8105 13.1509 75.8789 13.1289 75.9277 13.085C75.9814 13.041 76.0107 12.9775 76.0156 12.8945C76.0254 12.8115 76.0376 12.5771 76.0522 12.1914C76.0718 11.8057 76.0815 11.437 76.0815 11.0854L77.6123 11.2905V13.29ZM72.5732 9.88428C72.5732 11.0366 72.3242 12.0425 71.8262 12.9019C71.3281 13.7612 70.5908 14.4399 69.6143 14.938L68.6548 13.6343C69.4556 13.1411 70 12.5649 70.2881 11.9058C70.5811 11.2417 70.7275 10.541 70.7275 9.80371V8.59521H72.5732V9.88428ZM69.5264 12.6455L68.1201 12.9092C67.8809 11.4736 67.7344 10.4604 67.6807 9.86963L69.0503 9.65723L69.5264 12.6455ZM65.3882 9.85498C65.2075 11.6812 64.917 13.1143 64.5166 14.1543L63.2275 13.8394C63.6328 12.2524 63.8574 10.8926 63.9014 9.75977L65.3882 9.85498Z" fill="white"/>
<path d="M89.3311 7.66504H81.5308V6.80078C80.5591 7.42578 79.6582 7.90674 78.8281 8.24365L77.9272 6.70557C79.0112 6.271 80.1392 5.60693 81.311 4.71338C82.4829 3.81982 83.4546 2.8335 84.2261 1.75439H86.416C86.8799 2.43311 87.6807 3.20703 88.8184 4.07617C89.9561 4.94531 91.3062 5.70459 92.8687 6.354L91.7993 8.17041C91.0474 7.86768 90.2246 7.43555 89.3311 6.87402V7.66504ZM82.6953 5.99512H88.0493C86.8921 5.13574 85.9888 4.28613 85.3394 3.44629C84.6655 4.34473 83.7842 5.19434 82.6953 5.99512ZM88.8623 14.1543H81.8604V14.8501H79.7583V8.80029H90.9497V14.8135H88.8623V14.1543ZM81.8604 12.5356H88.8623V10.4189H81.8604V12.5356Z" fill="white"/>
<path d="M97.2046 1.91553C97.1069 2.13525 96.9897 2.35498 96.853 2.57471H100.112V3.80518H98.4058L98.9111 4.63281L97.1753 4.9624L96.5601 3.80518H95.9375C95.5322 4.27881 95.0635 4.71826 94.5312 5.12354L93.1104 4.37646C93.9893 3.62939 94.7095 2.72363 95.271 1.65918L97.2046 1.91553ZM103.745 1.95947L103.423 2.57471H107.4V3.80518H105.364L105.906 4.55957L104.089 4.85986L103.423 3.80518H102.551C102.209 4.20068 101.902 4.51074 101.628 4.73535L101.343 4.61084V5.2627H107.195V7.87012H105.452V6.44922H95.3882V7.1377H105.063V10.2139H97.2046V11.0488H106.235V14.9233H104.25V14.5205H97.2192V14.9233H95.1611V7.96533H93.645V5.2627H99.3506V4.42041H100.889L100.112 4.09082C100.771 3.36816 101.172 2.9043 101.313 2.69922C101.455 2.49414 101.65 2.15234 101.899 1.67383L103.745 1.95947ZM103.159 9.14453V8.18506H97.2339V9.14453H103.159ZM104.25 13.3193V12.1914H97.2339V13.3193H104.25Z" fill="white"/>
<path d="M113.135 11.5176C112.036 11.9521 110.496 12.4111 108.513 12.8945L108.096 11.2319L109.89 10.8071V7.75293H108.484V6.23682H109.89V3.87842H108.484V2.36963H113.149V3.87842H111.809V6.23682H113.025V7.75293H111.809V10.2798C112.39 10.104 112.861 9.94531 113.223 9.80371L113.296 10.4702H116.628V9.41553H113.479V1.95947H121.799V9.41553H118.679V10.4702H121.982V12.0449H118.679V13.1509H122.451V14.7695H112.651V13.1509H116.628V12.0449H113.135V11.5176ZM118.679 4.94775H119.822V3.51953H118.679V4.94775ZM115.442 4.94775H116.628V3.51953H115.442V4.94775ZM116.628 6.33936H115.442V7.84082H116.628V6.33936ZM119.822 6.33936H118.679V7.84082H119.822V6.33936Z" fill="white"/>
<path d="M132.332 4.2373L131.299 6.06836C130.767 5.8291 130.217 5.59229 129.651 5.35791C129.084 5.12354 128.623 4.9502 128.267 4.83789L125.19 3.84912L126.047 2.15723C127.605 2.50391 129.7 3.19727 132.332 4.2373ZM130.911 7.82617L129.915 9.67188C128.831 9.19824 127.937 8.8418 127.234 8.60254C126.536 8.36328 125.371 8.01416 123.74 7.55518L124.575 5.82666C125.596 6.03662 126.523 6.27588 127.358 6.54443C128.198 6.80811 129.382 7.23535 130.911 7.82617ZM137.466 7.25488C136.226 9.56445 134.568 11.332 132.493 12.5576C130.422 13.7832 127.935 14.5303 125.029 14.7988L124.546 12.8359C127.046 12.5771 129.194 11.9692 130.991 11.0122C132.793 10.0552 134.341 8.49268 135.635 6.32471L137.466 7.25488Z" fill="white"/>
<path d="M152.598 13.4219L150.95 14.9966C150.085 14.0542 148.416 12.5186 145.94 10.3896C143.772 12.4844 141.487 14.0347 139.084 15.0405L138.015 13.312C139.88 12.5161 141.697 11.3394 143.464 9.78174C145.237 8.22412 146.545 6.51514 147.39 4.65479L139.971 4.64746V2.72852H149.595L150.195 3.30713C149.844 4.55225 149.443 5.57275 148.994 6.36865C148.55 7.15967 147.986 7.97998 147.302 8.82959C149.412 10.5435 151.177 12.0742 152.598 13.4219Z" fill="white"/>
<path d="M166.338 4.63281H154.458V2.75781H166.338V4.63281ZM167.239 8.44141H161.885V8.66846C161.885 10.3823 161.338 11.7788 160.244 12.8579C159.155 13.937 157.622 14.6597 155.645 15.0259L154.985 13.2095C156.479 12.897 157.627 12.3623 158.428 11.6055C159.233 10.8438 159.636 9.89893 159.636 8.771V8.44141H153.572V6.55176H167.239V8.44141Z" fill="white"/>
<path d="M179.792 13.7441C177.2 14.1152 173.516 14.4424 168.74 14.7256L168.411 12.6821C168.87 12.6821 169.426 12.6699 170.081 12.6455C170.671 11.376 171.326 9.74756 172.043 7.76025C172.766 5.77295 173.379 3.91992 173.882 2.20117L176.13 2.56006C175.085 6.08057 173.848 9.40332 172.417 12.5283C175.273 12.3525 177.417 12.1646 178.848 11.9644C178.589 11.481 177.688 10.0503 176.145 7.67236L177.961 6.74219C178.762 7.72852 179.597 8.94678 180.466 10.397C181.335 11.8423 182.051 13.1558 182.612 14.3374L180.408 15.0991C180.203 14.6157 179.998 14.1641 179.792 13.7441Z" fill="white"/>
<path d="M17.2241 7.81152C16.1938 9.45215 14.6802 10.9146 12.6831 12.1987C10.6909 13.478 8.51318 14.3911 6.1499 14.938L5 14.0664V2.48682H7.25586V12.4478C8.67676 11.9985 10.1416 11.2856 11.6504 10.3091C13.1592 9.32764 14.4409 8.10449 15.4956 6.63965L17.2241 7.81152Z" stroke="black" stroke-width="2" mask="url(#path-1-outside-1_217_2961)"/>
<path d="M26.4893 14.9673H24.2847V6.28076H18.7256V4.44971H24.2847V2.03271H26.4893V4.44971H31.9971V6.28076H26.4893V14.9673ZM32.854 13.1362L31.0669 14.2935C30.1978 13.3901 29.4434 12.2744 28.8037 10.9463C28.1689 9.61328 27.7588 8.41699 27.5732 7.35742L29.6606 7.05713C29.8315 7.81885 30.1953 8.76123 30.752 9.88428C31.3086 11.0024 32.0093 12.0864 32.854 13.1362ZM23.4058 7.34277C22.7612 10.2432 21.5259 12.5381 19.6997 14.2275L18.0005 13.0776C19.0649 11.9448 19.834 10.8242 20.3076 9.71582C20.7812 8.60742 21.0718 7.74805 21.1792 7.1377L23.4058 7.34277ZM32.0996 2.56738C32.0996 3.02148 31.9434 3.39746 31.6309 3.69531C31.3184 3.98828 30.9253 4.13477 30.4517 4.13477C29.978 4.13477 29.585 3.98828 29.2725 3.69531C28.96 3.39746 28.8037 3.02148 28.8037 2.56738C28.8037 2.11328 28.96 1.73975 29.2725 1.44678C29.585 1.14893 29.978 1 30.4517 1C30.9253 1 31.3184 1.14893 31.6309 1.44678C31.9434 1.73975 32.0996 2.11328 32.0996 2.56738ZM31.3818 2.56738C31.3818 2.30859 31.2915 2.08887 31.1108 1.9082C30.9351 1.72754 30.7153 1.63721 30.4517 1.63721C30.188 1.63721 29.9658 1.72754 29.7852 1.9082C29.6094 2.08887 29.5215 2.30859 29.5215 2.56738C29.5215 2.82617 29.6094 3.0459 29.7852 3.22656C29.9658 3.40723 30.188 3.49756 30.4517 3.49756C30.7153 3.49756 30.9351 3.40723 31.1108 3.22656C31.2915 3.0459 31.3818 2.82617 31.3818 2.56738Z" stroke="black" stroke-width="2" mask="url(#path-1-outside-1_217_2961)"/>
<path d="M47.1729 9.60596H33.7183V7.65771H47.1729V9.60596Z" stroke="black" stroke-width="2" mask="url(#path-1-outside-1_217_2961)"/>
<path d="M62.1655 9.38623L60.7812 11.1221C58.7012 9.71094 56.5454 8.62207 54.314 7.85547V14.9966H52.0068V1.78369H54.3359V5.69482C56.8066 6.49072 59.4165 7.72119 62.1655 9.38623Z" stroke="black" stroke-width="2" mask="url(#path-1-outside-1_217_2961)"/>
<path d="M67.4097 15.0405H65.6445V9.21045C64.707 9.29834 63.9819 9.35205 63.4692 9.37158L63.2861 7.92871C63.6035 7.92871 63.9844 7.92139 64.4287 7.90674C64.7656 7.4624 65.061 7.06445 65.3149 6.71289C64.5923 5.86816 63.9209 5.12842 63.3008 4.49365L64.3262 3.41699L64.5532 3.64404C65.061 2.86768 65.459 2.1377 65.7471 1.4541L67.2925 2.05469C66.7896 2.99219 66.2134 3.8833 65.564 4.72803L66.1938 5.43115C66.853 4.43994 67.3193 3.63916 67.5928 3.02881L69.1382 3.73193C68.4351 4.94775 67.4854 6.31006 66.2891 7.81885C66.8262 7.78467 67.3071 7.75049 67.7319 7.71631C67.5659 7.18408 67.4438 6.83984 67.3657 6.68359L68.7061 6.29541C68.9453 6.95459 69.2383 7.88477 69.585 9.08594L68.208 9.44482C68.1982 9.34229 68.1592 9.16895 68.0908 8.9248C67.9053 8.9541 67.6782 8.98584 67.4097 9.02002V15.0405ZM75.2759 7.94336C73.9722 8.10938 72.0752 8.28516 69.585 8.4707L69.2993 6.8667C69.5874 6.86182 69.9414 6.84961 70.3613 6.83008C70.6396 6.25391 70.9155 5.60693 71.189 4.88916H69.4385V3.3584H72.2876V1.68848H74.1479V3.3584H77.2388V4.88916H73.1372C72.8979 5.43604 72.6025 6.04639 72.251 6.72021C73.1152 6.66162 73.8672 6.60303 74.5068 6.54443C74.3262 6.23682 74.1211 5.91455 73.8916 5.57764L73.9502 5.45312L75.4517 4.93311C76.2378 6.0415 76.9385 7.19629 77.5537 8.39746L75.7959 9.04199C75.6445 8.68555 75.4712 8.31934 75.2759 7.94336ZM77.6123 13.29C77.6123 13.6123 77.5537 13.8833 77.4365 14.103C77.3193 14.3228 77.146 14.4888 76.9165 14.6011C76.6919 14.7134 76.4795 14.7769 76.2793 14.7915C76.0791 14.8062 75.7935 14.8135 75.4224 14.8135C74.895 14.8135 74.5312 14.7915 74.3311 14.7476C74.1357 14.7085 73.9575 14.6353 73.7964 14.5278C73.6401 14.4204 73.5181 14.269 73.4302 14.0737C73.3472 13.8784 73.3057 13.6416 73.3057 13.3633V8.51465H75.1367V12.8945C75.1367 13.0654 75.2075 13.1509 75.3491 13.1509H75.7227C75.8105 13.1509 75.8789 13.1289 75.9277 13.085C75.9814 13.041 76.0107 12.9775 76.0156 12.8945C76.0254 12.8115 76.0376 12.5771 76.0522 12.1914C76.0718 11.8057 76.0815 11.437 76.0815 11.0854L77.6123 11.2905V13.29ZM72.5732 9.88428C72.5732 11.0366 72.3242 12.0425 71.8262 12.9019C71.3281 13.7612 70.5908 14.4399 69.6143 14.938L68.6548 13.6343C69.4556 13.1411 70 12.5649 70.2881 11.9058C70.5811 11.2417 70.7275 10.541 70.7275 9.80371V8.59521H72.5732V9.88428ZM69.5264 12.6455L68.1201 12.9092C67.8809 11.4736 67.7344 10.4604 67.6807 9.86963L69.0503 9.65723L69.5264 12.6455ZM65.3882 9.85498C65.2075 11.6812 64.917 13.1143 64.5166 14.1543L63.2275 13.8394C63.6328 12.2524 63.8574 10.8926 63.9014 9.75977L65.3882 9.85498Z" stroke="black" stroke-width="2" mask="url(#path-1-outside-1_217_2961)"/>
<path d="M89.3311 7.66504H81.5308V6.80078C80.5591 7.42578 79.6582 7.90674 78.8281 8.24365L77.9272 6.70557C79.0112 6.271 80.1392 5.60693 81.311 4.71338C82.4829 3.81982 83.4546 2.8335 84.2261 1.75439H86.416C86.8799 2.43311 87.6807 3.20703 88.8184 4.07617C89.9561 4.94531 91.3062 5.70459 92.8687 6.354L91.7993 8.17041C91.0474 7.86768 90.2246 7.43555 89.3311 6.87402V7.66504ZM82.6953 5.99512H88.0493C86.8921 5.13574 85.9888 4.28613 85.3394 3.44629C84.6655 4.34473 83.7842 5.19434 82.6953 5.99512ZM88.8623 14.1543H81.8604V14.8501H79.7583V8.80029H90.9497V14.8135H88.8623V14.1543ZM81.8604 12.5356H88.8623V10.4189H81.8604V12.5356Z" stroke="black" stroke-width="2" mask="url(#path-1-outside-1_217_2961)"/>
<path d="M97.2046 1.91553C97.1069 2.13525 96.9897 2.35498 96.853 2.57471H100.112V3.80518H98.4058L98.9111 4.63281L97.1753 4.9624L96.5601 3.80518H95.9375C95.5322 4.27881 95.0635 4.71826 94.5312 5.12354L93.1104 4.37646C93.9893 3.62939 94.7095 2.72363 95.271 1.65918L97.2046 1.91553ZM103.745 1.95947L103.423 2.57471H107.4V3.80518H105.364L105.906 4.55957L104.089 4.85986L103.423 3.80518H102.551C102.209 4.20068 101.902 4.51074 101.628 4.73535L101.343 4.61084V5.2627H107.195V7.87012H105.452V6.44922H95.3882V7.1377H105.063V10.2139H97.2046V11.0488H106.235V14.9233H104.25V14.5205H97.2192V14.9233H95.1611V7.96533H93.645V5.2627H99.3506V4.42041H100.889L100.112 4.09082C100.771 3.36816 101.172 2.9043 101.313 2.69922C101.455 2.49414 101.65 2.15234 101.899 1.67383L103.745 1.95947ZM103.159 9.14453V8.18506H97.2339V9.14453H103.159ZM104.25 13.3193V12.1914H97.2339V13.3193H104.25Z" stroke="black" stroke-width="2" mask="url(#path-1-outside-1_217_2961)"/>
<path d="M113.135 11.5176C112.036 11.9521 110.496 12.4111 108.513 12.8945L108.096 11.2319L109.89 10.8071V7.75293H108.484V6.23682H109.89V3.87842H108.484V2.36963H113.149V3.87842H111.809V6.23682H113.025V7.75293H111.809V10.2798C112.39 10.104 112.861 9.94531 113.223 9.80371L113.296 10.4702H116.628V9.41553H113.479V1.95947H121.799V9.41553H118.679V10.4702H121.982V12.0449H118.679V13.1509H122.451V14.7695H112.651V13.1509H116.628V12.0449H113.135V11.5176ZM118.679 4.94775H119.822V3.51953H118.679V4.94775ZM115.442 4.94775H116.628V3.51953H115.442V4.94775ZM116.628 6.33936H115.442V7.84082H116.628V6.33936ZM119.822 6.33936H118.679V7.84082H119.822V6.33936Z" stroke="black" stroke-width="2" mask="url(#path-1-outside-1_217_2961)"/>
<path d="M132.332 4.2373L131.299 6.06836C130.767 5.8291 130.217 5.59229 129.651 5.35791C129.084 5.12354 128.623 4.9502 128.267 4.83789L125.19 3.84912L126.047 2.15723C127.605 2.50391 129.7 3.19727 132.332 4.2373ZM130.911 7.82617L129.915 9.67188C128.831 9.19824 127.937 8.8418 127.234 8.60254C126.536 8.36328 125.371 8.01416 123.74 7.55518L124.575 5.82666C125.596 6.03662 126.523 6.27588 127.358 6.54443C128.198 6.80811 129.382 7.23535 130.911 7.82617ZM137.466 7.25488C136.226 9.56445 134.568 11.332 132.493 12.5576C130.422 13.7832 127.935 14.5303 125.029 14.7988L124.546 12.8359C127.046 12.5771 129.194 11.9692 130.991 11.0122C132.793 10.0552 134.341 8.49268 135.635 6.32471L137.466 7.25488Z" stroke="black" stroke-width="2" mask="url(#path-1-outside-1_217_2961)"/>
<path d="M152.598 13.4219L150.95 14.9966C150.085 14.0542 148.416 12.5186 145.94 10.3896C143.772 12.4844 141.487 14.0347 139.084 15.0405L138.015 13.312C139.88 12.5161 141.697 11.3394 143.464 9.78174C145.237 8.22412 146.545 6.51514 147.39 4.65479L139.971 4.64746V2.72852H149.595L150.195 3.30713C149.844 4.55225 149.443 5.57275 148.994 6.36865C148.55 7.15967 147.986 7.97998 147.302 8.82959C149.412 10.5435 151.177 12.0742 152.598 13.4219Z" stroke="black" stroke-width="2" mask="url(#path-1-outside-1_217_2961)"/>
<path d="M166.338 4.63281H154.458V2.75781H166.338V4.63281ZM167.239 8.44141H161.885V8.66846C161.885 10.3823 161.338 11.7788 160.244 12.8579C159.155 13.937 157.622 14.6597 155.645 15.0259L154.985 13.2095C156.479 12.897 157.627 12.3623 158.428 11.6055C159.233 10.8438 159.636 9.89893 159.636 8.771V8.44141H153.572V6.55176H167.239V8.44141Z" stroke="black" stroke-width="2" mask="url(#path-1-outside-1_217_2961)"/>
<path d="M179.792 13.7441C177.2 14.1152 173.516 14.4424 168.74 14.7256L168.411 12.6821C168.87 12.6821 169.426 12.6699 170.081 12.6455C170.671 11.376 171.326 9.74756 172.043 7.76025C172.766 5.77295 173.379 3.91992 173.882 2.20117L176.13 2.56006C175.085 6.08057 173.848 9.40332 172.417 12.5283C175.273 12.3525 177.417 12.1646 178.848 11.9644C178.589 11.481 177.688 10.0503 176.145 7.67236L177.961 6.74219C178.762 7.72852 179.597 8.94678 180.466 10.397C181.335 11.8423 182.051 13.1558 182.612 14.3374L180.408 15.0991C180.203 14.6157 179.998 14.1641 179.792 13.7441Z" stroke="black" stroke-width="2" mask="url(#path-1-outside-1_217_2961)"/>
</g>
<defs>
<filter id="filter0_d_217_2961" x="0" y="0" width="187.995" height="24.4248" filterUnits="userSpaceOnUse" color-interpolation-filters="sRGB">
<feFlood flood-opacity="0" result="BackgroundImageFix"/>
<feColorMatrix in="SourceAlpha" type="matrix" values="0 0 0 0 0 0 0 0 0 0 0 0 0 0 0 0 0 0 127 0" result="hardAlpha"/>
<feOffset dy="4"/>
<feGaussianBlur stdDeviation="2"/>
<feComposite in2="hardAlpha" operator="out"/>
<feColorMatrix type="matrix" values="0 0 0 0 0 0 0 0 0 0 0 0 0 0 0 0 0 0 0.25 0"/>
<feBlend mode="normal" in2="BackgroundImageFix" result="effect1_dropShadow_217_2961"/>
<feBlend mode="normal" in="SourceGraphic" in2="effect1_dropShadow_217_2961" result="shape"/>
</filter>
</defs>
</svg>
